<?xml version="1.0" encoding="UTF-8"?>
<svg xmlns="http://www.w3.org/2000/svg" version="1.1" viewBox="0 0 800 288.3">
  <!-- Generator: Adobe Illustrator 28.6.0, SVG Export Plug-In . SVG Version: 1.2.0 Build 709)  -->
  <g>
    <g id="Layer_1">
      <path d="M148.8,133.8c-2.7-14.5-21.7-22.5-40.6-12.3l4.9,16.6,7.7,24.6,3.5,11.2c14.1-9.1,28.3-20,24.6-40.1h0ZM130,156.2c-2.1-7.1-4.3-14.1-6.6-21.2l-2-6.8c3.7-.8,7.5-.4,11,1.1,1.8.9,4.9,2.8,5.5,6.5,1.6,8.3-1.2,14.3-8,20.3h0ZM433.6,110.8c-10.5-9.7-26.8-9-36.5,1.5s-9,26.8,1.5,36.5c.9.8,1.9,1.6,2.9,2.3l33.9-38.4c-.6-.6-1.2-1.2-1.8-1.8h0ZM401.6,137.8c-4.4-8.1-1.5-18.2,6.6-22.6,4.3-2.4,9.4-2.7,14-.9l-20.6,23.6ZM653.3,145.3c.3,1.1.5,2.3.4,3.5-.3,7.2-7.1,12.7-15.1,12.3-8-.3-14.3-6.4-14-13.5.2-6.8,6.2-12.1,13.6-12.4-1.4-.3-2.9-.5-4.4-.6-13.5-.6-24.5,9-24.9,20.9-.6,12.7,9.6,23.1,22.9,23.6,13.5.5,24.5-9.1,25-21.7.1-4.3-1.1-8.6-3.4-12.2M244.8,159.9c0,7.2-6.6,13-14.6,13s-14.6-5.8-14.6-13,5.8-12.3,13.1-12.9c-1.5-.3-2.9-.4-4.4-.4-13.5,0-24.1,10-24.1,21.9s10.7,22.7,23.9,22.7,24.1-9.9,24.1-22.7c0-4.3-1.4-8.5-4-11.9.3,1,.6,2.2.6,3.4M737.1,87l-6,24.6-5.5-27.3-73.9-16.2.5,41.1,11.1,2.5-.8,7.4-.3-.2c-13.8-7.3-30.9-8-47-1.9-5.4,2-10.5,4.8-15,8.1l-11.2-70.4h-49.2l-1.3,8.1h-51.8l-5.9,36.2-4.3-5.3c-12.5-15.3-31.1-24.2-50.8-24.3l43.9-23.6L439,0l-55.4,63.8,9.6,11.7c-8.3,3.3-15.9,8.2-22.5,14.3l-47.5-42.1-16.6,31.8.6-30.5-74.2,23.7,1.9,39.9,12.6-3.3,1.9,20.2c-14.4-6.4-31.8-6.3-47.9.5-4.7,2.1-9.2,4.6-13.3,7.6,2.9-11.7,2-24.1-2.6-35.3-5.6-12.7-15.1-23.2-27.2-30-8.7-5.7-18.5-9.2-28.8-10.3-25.7-4.5-56.5.1-86.9,13.1-10.7,4.5-21.1,9.9-30.9,16.1l-11.9,7.5,7.2,12.1,22.2,37.6s6.8,11.5,6.8,11.5l12-5.9,1.7-.8,55.3,123.3,5.3,11.8,12.3-3.9,29.9-9.6,13.1-4.2-3.5-13.3-15.9-61c4.6-3.4,8.8-7,12.8-10.7-.9,7.3-.4,14.7,1.6,21.7,4.1,14.8,13.9,26.4,27.3,32.9,14.5,7,32.2,7,48.5,0,8.2-3.5,15.6-8.6,21.7-14.6l2.3,24.3,52.3-7.7v-46.9c0,0,109.3,54,109.3,54v-52.3c15.8-1.6,31.1-6.5,44.9-14.5l-4.6,28.1,59,9.3,3.2-21.2,15.4,28.5,9.4-18.2,3.5,29.8,66.8,11.7-3.5-22.5c11.9,1.3,24-1,34.6-6.6l-2.7,23.9,44.5,6.3.3,18.2,46.3,14.6,60.5-182.1-62.9-15.3ZM475.8,114l3.1-3.2-3.7,23-9.6-8.7,10.3-11ZM436.6,20.3l16.2,22-46.3,23-3.2-4.9,33.3-40.1ZM129.8,190l18.5,70.9-29.9,9.6-61.4-137.1c-3.3,1.8-9.5,4.7-15.2,7.4l-22.2-37.5c8.9-5.6,18.5-10.6,28.8-15,28.9-12.3,56.6-16,78.7-12.1,7.8.9,16,3.2,23.3,8,9.9,5.6,17.5,13.5,21.9,23.7,10.7,24.7-7.2,60.2-42.5,82h0ZM267.4,177.4c-.3,10.6-4.2,21.1-10.7,30.1-6.3,8.9-15,15.8-25,20.2-26,11-51.9,0-58.8-24.7-6.8-23.8,8.9-52.2,34-63,16.1-6.7,32.2-5.2,43.7,2.7,7.1,4.9,12.6,12.1,15.1,21.2,1.2,4.4,1.8,9,1.6,13.5h0ZM408.6,227.5l-108.5-54.3.2,56.9-28.1,3.8-2-23.4c8.7-14.9,11.8-32.4,7.3-48.5-2.4-8.6-7-16.4-13.3-22.7l-4-47.8-12.6,3.3-.6-12.1,45.1-13.5,2.8,46.5,33.2-46.7,32.5,30.9-45.4,47.9,42.7,16.9c4.7,9,12,16.7,21.1,22.3,8.8,5.4,18.9,8.7,29.6,9.7v30.6h0ZM352.2,148.8l-15.1-5.8,14.1-13.7c-.6,6.3-.3,12.8,1,19.5h0ZM470.3,163.1c-10.4,8.6-22.3,14.2-38,18-3.3.8-6.7,1.4-10.1,1.7-24.9,2.4-45.8-9-53.7-27.5-1-2.2-1.8-4.6-2.3-7-3.7-15.6-.5-29.6,7.2-40.5,2.3-3.2,4.9-6.1,7.8-8.7,7.7-6.7,17-11.5,27.1-13.8,23.7-5.7,44.6,1.5,57.4,17.2l-45.2,48.1c3.9.3,7.8,0,11.5-1.1,10.8-2.6,16.8-8.3,22.1-14.5l18.1,16.2,5.5,5c-2.4,2.4-4.8,4.7-7.4,6.8h0ZM566.2,227.3l-9.8-65.1-13.9,35.9-20.8-44.9h-.2l-8.2,52-34.7-6,4.9-29c1.3-1.2,2.6-2.5,3.9-3.8l11.3-11.6-11-9.8,11.7-69.1h35l8.7,47.9,9.8-55.4h25.1l10.4,67.5c-13.2,15-19.7,35.3-15.2,53.8,3.5,15.5,14.2,28.3,28.8,34.5l1.3,8.8-37-5.6ZM652.7,206.1c-3.9,2.8-8.1,5-12.6,6.7-8.2,3.3-17.1,4.2-25.8,2.6-5.4-1-10.5-3.2-14.9-6.3-7.3-5.3-12.3-13.1-14.3-21.8-2.7-11.2-.2-23.2,5.8-33.7,3-5.1,6.9-9.9,11.5-14.1,5.1-4.6,11-8.3,17.6-10.8,15.3-5.7,30.4-3.7,41,3.9,7.1,5.1,12.1,12.6,14.1,21.1,3.3,13.5-.6,27.9-9.1,39.6-3.7,5-8.1,9.4-13.2,13.1h0ZM730.8,267.4l-25.7-7.6-2.2-94.6-12.9,73-28-4.5,2.1-21c18.2-15.5,27.9-39.8,22.6-61.9-2.2-9.5-7.3-18.2-14.5-24.8l2.4-24.8-10.6-2.8.7-13.2,48.3,9.7,16.2,76.9,16.6-69,36.7,8.1-51.7,156.4Z"/>
    </g>
  </g>
</svg>